<svg xmlns="http://www.w3.org/2000/svg" width="76.987" height="18.072" viewBox="0 0 76.987 18.072"><g transform="translate(0 0)"><g transform="translate(37.63 3.874)"><path d="M290.837,282.775v8.238h2.028v-6.355h2.48v-1.886Z" transform="translate(-255.987 -280.898)" fill="#fff"/><path d="M274.317,282.774h-4.5v8.238h2.026v-6.355h2.481Z" transform="translate(-262.843 -280.898)" fill="#fff"/><path d="M269.049,281.36h-4.492v1.872h2.48v8.239h2.012v-8.239h2.48v-1.874Z" transform="translate(-264.557 -281.359)" fill="#fff"/><path d="M282.9,284.4a1.414,1.414,0,0,1,1.247.606,1.545,1.545,0,0,1,.228.753h1.92a3.233,3.233,0,0,0-.629-1.772,3.523,3.523,0,0,0-2.778-1.28,3.693,3.693,0,0,0-2.822,1.28,5.4,5.4,0,0,0,0,5.944,3.7,3.7,0,0,0,2.822,1.281,3.559,3.559,0,0,0,2.778-1.281,3.161,3.161,0,0,0,.629-1.772h-1.92a1.664,1.664,0,0,1-.228.755,1.448,1.448,0,0,1-1.247.606,1.628,1.628,0,0,1-1.188-.515,2.984,2.984,0,0,1-.549-2.045,3.069,3.069,0,0,1,.549-2.07A1.594,1.594,0,0,1,282.9,284.4Z" transform="translate(-259.79 -280.92)" fill="#fff"/><path d="M288.559,282.706a3.553,3.553,0,0,0-2.6,1.029,4.584,4.584,0,0,0-1.176,3.246,4.4,4.4,0,0,0,1.245,3.246,3.563,3.563,0,0,0,2.561,1.005,3.477,3.477,0,0,0,2.732-1.143,3.26,3.26,0,0,0,.686-1.5h-1.861a1.473,1.473,0,0,1-.389.686,1.514,1.514,0,0,1-1.188.389,1.719,1.719,0,0,1-1.2-.5,2.183,2.183,0,0,1-.594-1.6h5.441c0-.171.011-.549.011-.549a4.562,4.562,0,0,0-.71-2.835A3.464,3.464,0,0,0,288.559,282.706Zm-1.794,3.464a1.978,1.978,0,0,1,.423-1.269,1.67,1.67,0,0,1,1.361-.629,1.617,1.617,0,0,1,1.235.468,2.17,2.17,0,0,1,.5,1.418h-3.521Z" transform="translate(-257.961 -280.921)" fill="#fff"/><path d="M280.226,288.292h0l.012-2.286a4.386,4.386,0,0,0-.24-1.634c-.468-1.224-1.658-1.658-3.041-1.658-1.817,0-3.269.81-3.371,2.64h1.886c.046-.755.582-1.155,1.487-1.155,1.109,0,1.371.514,1.371,1.281v.5l-2.392.171c-1.544.115-2.754,1.007-2.754,2.549a2.629,2.629,0,0,0,2.937,2.55,2.828,2.828,0,0,0,2.469-1.224v1.1h2.343v-1.406h-.709Zm-1.908-.492a1.837,1.837,0,0,1-2.081,1.861,1.075,1.075,0,0,1-1.152-.991v-.026a1.136,1.136,0,0,1,1.166-1.062l2.059-.16v.377Z" transform="translate(-261.744 -280.917)" fill="#fff"/></g><path d="M265.171,278.438l-15.647,9.041,15.647,9.031v-2.367l-11.533-6.664,11.533-6.664Z" transform="translate(-231.83 -278.438)" fill="#fff"/><rect width="2.058" height="18.072" transform="translate(15.648 0.001)" fill="#fff"/><path d="M236.181,280.817l11.533,6.664-11.533,6.662v2.367l15.647-9.031-15.647-9.041Z" transform="translate(-236.181 -278.438)" fill="#fff"/></g></svg>