<svg id="Layer_1" data-name="Layer 1" xmlns="http://www.w3.org/2000/svg" viewBox="0 0 1658.33 1721.48"><defs><style>.cls-1{fill:none;stroke:#aab3db;stroke-miterlimit:10;stroke-width:2px;}</style></defs><title>graphic_outline_purple</title><path class="cls-1" d="M1630.65,729.51c-63.13-109-66.93-255.59-98.71-394.51C1493.28,166.81,1415.54-56.13,1217,33.86c-44.61,20.2-83,57.86-119.54,101.39C982.76,321.58,813.11,389.32,653.22,414.36,535.27,433.5,491,583.79,481,692.67c-6.4,75.3-33,169.26-111.71,214.79C246.8,976.62,72.1,995.47,21,1173.59c-11.08,44.43-10.15,86.75,5.44,119.05C68,1383.18,128.86,1454,202.55,1508.12a632.12,632.12,0,0,0,77.73,48.66c222.83,100,475.17,149,735.38,169q55.76,4.29,111.94,6.88c49.27-39.59,94.72-82.94,156-111.69,176.25-81.71,454-132,371.25-391.06-41.55-131.16-112.66-263.39-74.83-381.42,10.67-33,28.46-62.42,48.34-91.16C1634,749.09,1635,736.67,1630.65,729.51Z" transform="translate(-12.57 -12.19)"/></svg>