<svg id="Layer_1" data-name="Layer 1" xmlns="http://www.w3.org/2000/svg" viewBox="0 0 1673.01 1644.11"><defs><style>.cls-1{fill:#f7c1da;}</style></defs><title>graphic_filled_pink</title><path class="cls-1" d="M593,1807.68c112.76-65.13,257.07-70.21,396.36-103.69C1158,1663.27,1384,1582.34,1313.76,1381c-15.76-45.22-49.25-83.94-88.65-120.8C1052.6,1145.09,1001.56,973,991.56,810.54,983.52,690.68,840,646.91,734,637.62c-73.35-5.89-163.18-32.13-200.71-111.9C476.55,401.64,474,224,303.74,173.5c-42.61-10.91-84.25-9.62-117.39,6.52-92.69,43-167.78,105.54-227.63,181a739.62,739.62,0,0,0-54.86,79.49c-135.4,260.06-208.94,558.79-250,863.6C-177.29,1560,140.68,1603,398.59,1707.51c59.59,24.6,114.49,58.11,167.29,98.09C573.47,1811.24,585.57,1812.13,593,1807.68Z" transform="translate(346.1 -166.4)"/></svg>