<svg id="Layer_1" data-name="Layer 1" xmlns="http://www.w3.org/2000/svg" viewBox="0 0 1291.56 1468.87"><defs><style>.cls-1{fill:#77b2e1;}</style></defs><title>graphic_filled</title><path class="cls-1" d="M-186.54,845.86c74.76,80.33,106.21,200.52,160,310.19,65.3,132.75,174.43,304.76,326.34,201,34.13-23.29,59.58-60,82.37-101.36,61.9-170.6,193.46-251.72,324.91-296.22,96.84-33.38,105.63-163.77,93.22-254.94-9-63-4.48-144.33,53.89-193.59,91.1-75.25,236.37-116.86,245.66-271.2.9-38.25-8-73-27.54-97.24C1019.49,74.14,954,24.89,880.8-8.68a591.43,591.43,0,0,0-75.6-28.47c-239-56.07-498.07-51.56-756-18.34C-128.87,143.25-104,420.12-141.08,660.17c-8.92,55.57-26,109.16-48.88,162.43C-193.15,830.23-191.59,840.6-186.54,845.86Z" transform="translate(191.62 80.01)"/></svg>