<svg id="Layer_1" data-name="Layer 1" xmlns="http://www.w3.org/2000/svg" viewBox="0 0 1766.52 1735.99"><defs><style>.cls-1{fill:none;stroke:#f7c1da;stroke-miterlimit:10;stroke-width:2px;}</style></defs><title>graphic_outline_pink</title><path class="cls-1" d="M617.87,1751.07c118.92-68.69,271.12-74,418-109.36,177.88-42.94,416.22-128.3,342.13-340.6-16.62-47.7-51.94-88.53-93.5-127.4-181.93-121.46-235.77-302.94-246.31-474.3C1029.73,573,878.35,526.85,766.57,517c-77.36-6.21-172.11-33.89-211.69-118C495,268.16,492.33,80.84,312.79,27.55,267.85,16,223.93,17.41,189,34.42,91.23,79.82,12,145.73-51.09,225.28A780.06,780.06,0,0,0-109,309.11c-142.8,274.28-220.36,589.34-263.62,910.81,178,269.9,513.39,315.24,785.4,425.5,62.85,25.95,120.75,61.28,176.44,103.45C597.27,1754.83,610,1755.77,617.87,1751.07Z" transform="translate(373.61 -19.06)"/></svg>