<svg id="Layer_1" data-name="Layer 1" xmlns="http://www.w3.org/2000/svg" viewBox="0 0 1420.23 1615.08"><defs><style>.cls-1{fill:none;stroke:#76b1e1;stroke-miterlimit:10;}</style></defs><title>graphic_outline</title><path class="cls-1" d="M-116.62,884.74C-34.47,973,.09,1105.08,59.21,1225.59c71.75,145.88,191.68,334.89,358.6,220.87,37.51-25.6,65.47-66,90.52-111.38,68-187.47,212.59-276.61,357-325.5,106.41-36.68,116.07-180,102.44-280.15-9.93-69.2-4.92-158.59,59.21-212.73C1127.12,434,1286.75,388.3,1297,218.7c1-42-8.83-80.18-30.26-106.85-58.07-75.12-130-129.24-210.47-166.12a649.89,649.89,0,0,0-83.08-31.28c-262.64-61.62-547.31-56.65-830.69-20.16C-53.26,112.68-26,416.91-66.67,680.69c-9.81,61.06-28.62,120-53.71,178.48C-123.89,867.56-122.18,879-116.62,884.74Z" transform="translate(122.71 133.15)"/></svg>